PathFileType	4	(X/Y/Z)	C:\Users\Basilio\Documents\Thesis Gigler\squatting_fais\c3dfiles\040\SLS_pre_back5\markers_experimental.trc
DataRate	CameraRate	NumFrames	NumMarkers	Units	OrigDataRate	OrigDataStartFrame	OrigNumFrames
200.000000	200.000000	4	63	mm	200.000000	734	1469
Frame#	Time	FHD			LBHD			RBHD			C7			T10			CLAV			LSHO			LUUPA			LMUPA			LDUPA			LLEP			LMEP			LRAD			LUL			LRFIN			RSHO			RUPA1			RMUPA			RDUPA			RLEP			RMEP			RRAD			RUL			RUFIN			LASI			RASI			USACR			LSACR			RSACR			LTHI1			LTHI2			LTHI3			LTHI4			LLFC			LMFC			LTIB1			LTIB2			LTIB3			LTIB4			LLMAL			LMMAL			LHEE			LMT1			LMT2			LMT5			RTHI			RTHI2			RTHI3			RTHI4			RLFC			RMFC			RTIB1			RTIB2			RTIB3			RTIB4			RLMAL			RMMAL			RHEE			RMT1			RMT2			RMT5			*61			*62			
		X1	Y1	Z1	X2	Y2	Z2	X3	Y3	Z3	X4	Y4	Z4	X5	Y5	Z5	X6	Y6	Z6	X7	Y7	Z7	X8	Y8	Z8	X9	Y9	Z9	X10	Y10	Z10	X11	Y11	Z11	X12	Y12	Z12	X13	Y13	Z13	X14	Y14	Z14	X15	Y15	Z15	X16	Y16	Z16	X17	Y17	Z17	X18	Y18	Z18	X19	Y19	Z19	X20	Y20	Z20	X21	Y21	Z21	X22	Y22	Z22	X23	Y23	Z23	X24	Y24	Z24	X25	Y25	Z25	X26	Y26	Z26	X27	Y27	Z27	X28	Y28	Z28	X29	Y29	Z29	X30	Y30	Z30	X31	Y31	Z31	X32	Y32	Z32	X33	Y33	Z33	X34	Y34	Z34	X35	Y35	Z35	X36	Y36	Z36	X37	Y37	Z37	X38	Y38	Z38	X39	Y39	Z39	X40	Y40	Z40	X41	Y41	Z41	X42	Y42	Z42	X43	Y43	Z43	X44	Y44	Z44	X45	Y45	Z45	X46	Y46	Z46	X47	Y47	Z47	X48	Y48	Z48	X49	Y49	Z49	X50	Y50	Z50	X51	Y51	Z51	X52	Y52	Z52	X53	Y53	Z53	X54	Y54	Z54	X55	Y55	Z55	X56	Y56	Z56	X57	Y57	Z57	X58	Y58	Z58	X59	Y59	Z59	X60	Y60	Z60	X61	Y61	Z61	X62	Y62	Z62	X63	Y63	Z63	

735	3.67	54.97405242919923	1319.233520507813	-1231.1181640625	-71.00325775146486	1268.810180664063	-1266.08203125	-117.4002838134766	1229.237182617188	-1131.540283203125	-133.8430328369141	1161.766723632813	-1173.782104492188	-362.3997802734376	979.9176025390627	-1115.504760742188	-60.64623260498048	1038.16015625	-1189.45751953125	-84.86492156982423	1137.914672851563	-1309.939697265625	39.39694213867188	1086.289794921875	-1419.546875	76.25359344482423	1086.56298828125	-1386.185546875	101.7381210327149	1064.027709960938	-1436.017822265625	153.0203247070313	1029.2060546875	-1450.450439453125	137.0287322998047	971.9019775390627	-1423.688232421875	nan	nan	nan	433.3973999023439	1002.134399414063	-1444.648559570313	521.4365844726564	999.2606201171877	-1372.62548828125	-40.41361236572266	1119.925537109375	-1063.940185546875	102.074203491211	1037.739990234375	-989.1026000976565	132.2414093017578	1055.769775390625	-1022.162902832031	165.9006652832032	1012.296630859375	-998.406433105469	225.7099304199219	995.8878173828127	-1014.59521484375	203.4807434082032	940.140319824219	-1061.072021484375	477.3254394531251	1028.418212890625	-1171.1923828125	489.533905029297	988.1045532226565	-1107.4970703125	572.6809692382814	1028.924560546875	-1171.976318359375	-370.2532043457032	760.2804565429689	-1210.878173828125	-361.3661499023438	735.1859741210939	-993.8488769531252	-485.6215820312501	891.598083496094	-1088.269897460938	-517.2396240234376	875.9494628906252	-1115.724975585938	-509.3048095703126	868.4095458984377	-1059.9384765625	-359.2035827636719	597.8596801757814	-1274.877563476563	-274.2383422851563	584.9244995117189	-1281.974365234375	-247.5973358154297	622.9396362304689	-1282.594970703125	-244.2004089355469	535.4896240234376	-1266.048217773438	-138.6159362792969	474.3790283203126	-1246.447875976563	-149.6582336425782	469.1526184082032	-1127.461547851563	-175.64306640625	270.4561767578126	-1175.563354492188	-252.8450164794922	262.2881774902344	-1222.986328125	-219.197738647461	242.1936950683594	-1199.764404296875	-253.9841918945313	174.9061431884766	-1156.6767578125	-354.8067626953126	123.3469161987305	-1172.858642578125	-321.5558776855469	139.7145385742188	-1089.19970703125	-426.7454833984376	99.35767364501956	-1119.8564453125	-215.2871398925782	56.04845428466798	-1103.921752929688	-216.5371704101563	53.47322082519533	-1150.426513671875	-269.3966064453126	40.03374099731446	-1197.5537109375	-492.0975952148439	502.8159484863282	-949.6647949218752	-482.4763793945314	438.656707763672	-965.697204589844	-454.0211181640626	429.440155029297	-980.4978637695315	-540.5785522460939	378.6822509765626	-974.2964477539065	-583.8150634765626	280.7009277343751	-990.048522949219	-624.9530639648439	306.8768005371094	-1111.297607421875	-759.2961425781251	221.8691711425782	-986.021179199219	-818.373474121094	288.4871215820313	-922.277770996094	-829.9631958007815	247.722152709961	-942.5362548828127	-885.2177734375002	242.6072692871094	-964.5367431640627	-982.5085449218752	293.7115783691407	-900.2742919921877	-995.811218261719	301.5651245117188	-990.0620117187502	-1029.843383789063	374.1359252929688	-926.4555664062502	-1079.442626953125	168.4508361816407	-990.025573730469	-1067.361694335938	157.96337890625	-951.4339599609377	-1072.32958984375	185.1695251464844	-886.5459594726565	nan	nan	nan	nan	nan	nan	
736	3.675	54.86960983276369	1319.720458984375	-1230.913940429688	-70.83326721191408	1269.199462890625	-1265.92822265625	-117.4297943115235	1229.515258789063	-1131.512939453125	-133.811996459961	1162.101440429688	-1173.813232421875	-362.2531433105469	980.2339477539065	-1115.521484375	-60.41587448120119	1038.567626953125	-1189.319580078125	-84.34336090087892	1138.153686523438	-1309.823120117188	40.3213005065918	1086.481323242188	-1419.492919921875	76.38385009765626	1087.09130859375	-1385.881103515625	102.1739349365235	1064.72900390625	-1435.681884765625	153.5868682861328	1029.84130859375	-1450.381713867188	137.509506225586	972.6164550781252	-1423.554077148438	nan	nan	nan	433.7378540039064	1003.072692871094	-1444.578002929688	521.9363403320314	999.9409790039065	-1372.588623046875	-40.43861770629884	1120.158203125	-1063.828979492188	101.6317138671875	1038.743286132813	-988.7571411132815	132.1522521972657	1056.239624023438	-1022.075744628906	166.4954528808594	1013.727722167969	-997.2734375000002	225.767562866211	996.5266723632815	-1014.115478515625	203.6819305419922	940.5476684570315	-1060.413452148438	477.6143188476564	1028.741943359375	-1170.47265625	489.5719604492189	988.4453735351565	-1106.919555664063	573.0999145507814	1029.179565429688	-1171.154418945313	-370.0146789550782	760.2492065429689	-1210.875610351563	-361.1018676757813	735.2430419921876	-993.7961425781252	-485.5722045898439	891.4328613281252	-1088.406982421875	-516.9617309570314	876.1204223632815	-1115.909912109375	-509.1910705566407	868.6213989257815	-1060.003784179688	-358.8026733398438	597.9761962890626	-1274.58837890625	-273.8294677734376	585.0509643554689	-1281.591186523438	-247.1683502197266	622.9754028320314	-1282.116821289063	-243.830551147461	535.4246826171876	-1265.479736328125	-138.3722839355469	473.7318420410157	-1245.907104492188	-149.3503723144532	468.9164123535157	-1126.825561523438	-175.5498962402344	270.3753967285157	-1175.195678710938	-252.6254577636719	262.9739074707032	-1222.626098632813	-218.9844360351563	242.2483367919922	-1199.519409179688	-254.0132446289063	175.0897064208985	-1156.5419921875	-354.7623596191407	123.4247207641602	-1172.869140625	-321.5419921875001	139.7070617675782	-1089.146362304688	-426.7727966308595	99.42836761474612	-1119.913696289063	-215.3479309082032	55.96179962158205	-1103.737426757813	-216.5072631835938	53.54769515991212	-1150.374633789063	-269.4216918945313	39.97121047973634	-1197.500122070313	-491.539520263672	503.0426330566407	-949.6765747070315	-481.9038085937501	438.9760742187501	-965.1331787109377	-454.1734619140626	429.3839721679689	-980.6660766601565	-540.0032348632814	379.1155395507813	-974.248229980469	-583.1209106445314	280.5212707519532	-990.3558349609377	-623.8624267578126	306.8654479980469	-1111.4111328125	-758.3918457031251	221.6386260986329	-985.3914794921877	-817.904235839844	288.8518066406251	-923.1040649414065	-829.1281738281252	247.936996459961	-942.8933105468752	-884.5872192382815	242.968490600586	-965.522888183594	-982.1043701171877	293.7720642089844	-901.6011352539065	-995.0079345703127	301.4146728515626	-991.4700317382815	-1029.310424804688	374.2234802246094	-928.0894775390627	-1078.648193359375	168.3935699462891	-991.4676513671877	-1066.892578125	157.6613311767578	-952.8660888671877	-1072.2568359375	185.5110015869141	-888.0169067382815	nan	nan	nan	nan	nan	nan	
737	3.68	54.93862152099611	1320.263427734375	-1230.72509765625	-70.87936401367189	1269.682983398438	-1265.717407226563	-117.7858352661133	1229.996459960938	-1131.2607421875	-133.7239837646485	1162.534423828125	-1173.678466796875	-362.0576171875001	980.610046386719	-1115.548950195313	-60.30468368530275	1038.920654296875	-1189.0986328125	-84.03985595703126	1138.446655273438	-1309.674926757813	40.15549850463868	1087.31298828125	-1419.248046875	76.77282714843751	1087.589599609375	-1385.679931640625	103.1428527832032	1065.026733398438	-1435.470336914063	153.5349731445313	1030.711791992188	-1450.250366210938	137.9313354492188	973.2523193359377	-1423.344360351563	nan	nan	nan	434.2854919433595	1004.257385253906	-1444.70703125	522.4996337890626	1000.695129394531	-1372.385864257813	-40.49480056762696	1120.575439453125	-1063.617797851563	102.2153244018555	1039.603149414063	-988.5064697265627	132.1981048583985	1056.771240234375	-1021.813354492188	166.5950622558594	1014.293762207031	-997.0111083984377	225.7342376708985	996.609558105469	-1013.6259765625	203.6168518066407	941.1322021484377	-1059.660522460938	477.898406982422	1028.879028320313	-1169.854858398438	489.6761169433595	988.751647949219	-1106.261962890625	573.4331054687501	1029.218627929688	-1170.271484375	-369.3040771484376	760.8627319335939	-1210.802124023438	-360.9374084472657	735.8551635742189	-993.7454223632815	-485.4178161621095	891.7351074218752	-1088.45068359375	-516.7641601562501	876.4527587890627	-1116.106689453125	-508.8516540527345	868.8148193359377	-1060.238525390625	-358.2972717285157	598.0892944335939	-1274.363037109375	-273.3843688964844	585.1766357421876	-1281.222900390625	-246.6873779296876	623.0709838867189	-1281.69873046875	-243.3453521728516	535.3550415039064	-1264.967895507813	-138.137451171875	473.7851562500001	-1245.324584960938	-149.2403869628907	469.0484313964845	-1126.227416992188	-175.4147644042969	270.4973754882813	-1174.914428710938	-252.4910125732422	263.0001220703126	-1222.378540039063	-218.192367553711	241.8240356445313	-1199.3857421875	-253.9960937500001	175.2318878173828	-1156.456665039063	-354.6888427734376	123.4391098022461	-1172.884643554688	-321.5679931640626	139.7338256835938	-1089.14453125	-426.7370605468751	99.4267501831055	-1119.888549804688	-215.2807769775391	56.01302719116212	-1103.777709960938	-216.499740600586	53.56614685058595	-1150.358032226563	-269.3596496582032	39.9472999572754	-1197.487548828125	-490.9993286132814	503.3599853515626	-949.4744262695315	-481.4438781738282	439.2600708007814	-964.7637939453127	-453.3787536621095	429.871063232422	-980.4873046875002	-539.4664916992189	379.5623168945313	-974.1182250976565	-582.2720947265626	280.8591308593751	-990.1348266601565	-622.8074951171876	306.8142700195313	-1111.4501953125	-757.2025756835939	222.3360290527344	-986.2603759765627	-817.2695312500002	288.7771301269532	-923.805603027344	-828.5274047851565	248.1067352294922	-943.7133789062502	-883.4268188476565	242.6958465576172	-966.806335449219	-982.1043701171877	293.7528381347657	-902.8223266601565	-994.2630615234377	301.3348999023438	-992.9212646484377	-1029.021484375	374.2923583984376	-929.5979614257815	-1077.758544921875	168.3770751953125	-993.0284423828127	-1066.142456054688	157.9160308837891	-954.4632568359377	-1071.432983398438	185.6368408203125	-889.784851074219	nan	nan	nan	nan	nan	nan	
738	3.685	54.92012405395509	1320.739990234375	-1230.530639648438	-70.85305786132814	1270.130737304688	-1265.495239257813	-117.6987915039063	1230.245483398438	-1131.1494140625	-133.4023742675782	1163.108764648438	-1173.565307617188	-361.6826477050782	981.1546020507815	-1115.449584960938	-60.05492019653322	1039.451171875	-1188.9853515625	-83.91045379638673	1138.890380859375	-1309.5556640625	40.05300903320313	1087.978759765625	-1418.809692382813	76.56873321533205	1088.591064453125	-1385.502563476563	103.2732772827149	1065.929321289063	-1435.346801757813	154.0359649658203	1031.492431640625	-1449.941772460938	138.429672241211	973.868591308594	-1423.294067382813	nan	nan	nan	434.7810668945314	1005.261047363281	-1444.57861328125	522.9598999023439	1001.46435546875	-1372.044555664063	-40.79193115234376	1120.650146484375	-1063.758911132813	102.3695755004883	1040.275512695313	-988.1985473632815	132.38525390625	1057.365356445313	-1021.675170898438	166.7142181396485	1015.05126953125	-996.6970214843752	225.9627838134766	997.6923828125002	-1013.234680175781	203.2370300292969	942.1558837890627	-1059.259887695313	478.3651733398439	1029.268676757813	-1169.219482421875	489.7395629882814	988.999694824219	-1105.35302734375	573.6188964843751	1029.541381835938	-1169.3037109375	-368.8633117675782	761.3472290039064	-1210.804931640625	-360.6871032714844	736.3504028320314	-993.7513427734377	-485.2211303710939	892.1767578125002	-1088.604858398438	-516.5202026367189	876.743103027344	-1116.242431640625	-508.7503356933595	869.1702880859377	-1060.363403320313	-357.8670043945313	598.1613769531251	-1274.199340820313	-272.8301696777344	585.2743530273439	-1280.84375	-246.2336578369141	623.1036987304689	-1281.31982421875	-242.9409179687501	535.4931030273439	-1264.591064453125	-137.8580932617188	473.8321228027345	-1244.900390625	-149.10546875	468.9862365722657	-1125.640869140625	-175.3480529785157	270.5238342285157	-1174.766967773438	-252.3525848388672	262.5422058105469	-1222.308471679688	-218.0039367675782	241.8318634033204	-1199.170043945313	-253.9106597900391	175.2674713134766	-1156.472900390625	-354.6978454589844	123.5296630859375	-1172.920532226563	-321.4993591308594	139.7742309570313	-1089.169311523438	-426.7129821777345	99.4177169799805	-1119.981079101563	-215.3382873535157	55.99953079223634	-1103.69091796875	-216.5481567382813	53.57869338989259	-1150.349975585938	-269.3315124511719	40.00268554687501	-1197.568603515625	-490.6193237304689	503.6328735351564	-949.178405761719	-481.2390441894532	439.3373413085939	-964.7093505859377	-452.5739135742189	430.5112304687501	-980.1394653320315	-538.6939697265626	379.5950927734376	-973.9402465820315	-581.4157104492189	280.9993896484376	-990.2083740234377	-621.5631103515626	306.7015686035157	-1111.589599609375	-757.0690307617189	221.9976043701172	-987.7205810546877	-816.6085205078127	288.9622192382813	-924.378601074219	-828.054382324219	247.9174499511719	-944.2456665039065	-882.9599609375002	242.6041717529297	-967.380554199219	-981.6135253906252	293.8497314453126	-904.3402099609377	-994.0197753906252	301.6865539550782	-994.5255126953127	-1028.281982421875	374.1357727050782	-931.3751220703127	-1076.829833984375	168.0538024902344	-994.8605957031252	-1065.484252929688	157.394287109375	-955.7872314453127	-1071.016235351563	185.9511871337891	-891.184509277344	nan	nan	nan	nan	nan	nan	
